<?xml version="1.0" ?><svg viewBox="0 0 24 24" xmlns="http://www.w3.org/2000/svg"><title/><g data-name="App Store" id="App_Store"><path d="M20.85,15.11l-.56-1a.5.5,0,0,0-.68-.19l-1.74,1a.5.5,0,0,0-.19.68l.56,1a3.28,3.28,0,0,0,.9,2.77c.94.94,1.89,2,1.85,3.13a.5.5,0,0,0,.38.5h.12a.5.5,0,0,0,.45-.29A11.6,11.6,0,0,0,23,19,4,4,0,0,0,20.85,15.11Z" /><path d="M2.53,14.75l1.74-3A.5.5,0,0,0,3.84,11H.5a.5.5,0,0,0-.5.5v3a.5.5,0,0,0,.5.5H2.1A.5.5,0,0,0,2.53,14.75Z"/><path d="M14,11.25a.5.5,0,0,0-.43-.25H10.78a.5.5,0,0,0-.43.25l-1.74,3A.5.5,0,0,0,9,15h6.29a.5.5,0,0,0,.43-.75Z"/><path d="M23.5,11h-3a.5.5,0,0,0-.43.75l1.71,3a.5.5,0,0,0,.43.25H23.5a.5.5,0,0,0,.5-.5v-3A.5.5,0,0,0,23.5,11Z"/><path d="M8.74,7l1.73,1a.5.5,0,0,0,.68-.18l.65-1.12a.5.5,0,0,0-.18-.68l-1.73-1a.5.5,0,0,0-.68.18L8.55,6.36A.5.5,0,0,0,8.74,7Z"/><path d="M10.15,9.6A.5.5,0,0,0,10,8.91l-1.73-1a.5.5,0,0,0-.68.18L2.24,17.25a.49.49,0,0,0,0,.07l0,0L1,21.36a.5.5,0,0,0,.84.49l2.9-3a.48.48,0,0,0,0-.06l0,0ZM3,18.25l.62.36-1,1.08Z" /><path d="M19.3,12.39,12.93,1.25a.5.5,0,0,0-.3-.23.5.5,0,0,0-.38,0l-1.74,1a.5.5,0,0,0-.19.68L16.7,13.88a.5.5,0,0,0,.3.23l.13,0a.5.5,0,0,0,.25-.07l1.74-1A.5.5,0,0,0,19.3,12.39Z"/></g></svg>