<svg data-name="Layer 45" viewBox="0 0 24 24" xmlns="http://www.w3.org/2000/svg"><path d="M19.833 11.667c0 1.942.552 4.074-.494 5.544a9.046 9.046 0 0 1-.872 1.048 16.363 16.363 0 0 1-6.384 1.45 21.093 21.093 0 0 1-6.343-1.243 9.051 9.051 0 0 1-.903-1.016 14.232 14.232 0 0 1-.67-5.492c0-2.665 1.125-4.875 1.833-6.666A9.02 9.02 0 0 1 7.873 4H12a21.556 21.556 0 0 1 4.998.514A9.038 9.038 0 0 1 18 5.292c.792 2.25 1.833 3.71 1.833 6.375Z" fill="#1e1f1f" class="fill-4eba94"></path><path d="M14.25 8.083c2.79 3.011 5.333 7.3 4.91 9.354a8.968 8.968 0 0 0-1.28-12.24 15.055 15.055 0 0 0-3.728 2.787c.033.035.066.064.098.1ZM12.444 5.967a9.658 9.658 0 0 1 4.44-1.52 8.964 8.964 0 0 0-9.312-.277c.493.425 2.128.585 4.113 1.8a.723.723 0 0 0 .759-.003ZM9.875 8.083c.035-.036.07-.068.104-.104a21.354 21.354 0 0 0-2.93-2.372 1.392 1.392 0 0 0-1.126-.232A8.983 8.983 0 0 0 5.06 17.73c-.773-1.91 1.858-6.504 4.815-9.647ZM18.621 18.081c.364-1.964-3.567-5.502-6.558-8.185-2.972 2.63-7.108 6.55-6.474 8.416a8.979 8.979 0 0 0 13.032-.23Z" fill="#ffffff" class="fill-e3edf0"></path></svg>