<svg viewBox="0 0 512 512" xml:space="preserve" xmlns="http://www.w3.org/2000/svg" enable-background="new 0 0 512 512"><path d="M130.155 37.465C86.361 45.32 51.109 77.724 40.014 120.34c-4.024 15.417-4.32 24.45-3.828 143.855.195 109.583.294 112.136 2.159 120.68 10.114 45.658 42.519 78.163 88.67 88.865 5.989 1.374 13.648 1.669 62.941 1.866 50.962.393 56.265.293 57.64-1.082 1.374-1.374 1.473-18.95 1.473-218.187 0-147.782-.294-217.302-.883-218.579-.885-1.668-2.455-1.767-55.872-1.668-43.403.099-56.461.394-62.159 1.375z" fill="#ffffff" class="fill-cf201b"></path><path d="M226.083 485.807c-8.494 0-20.15-.077-36.204-.2-49.943-.2-57.856-.458-65.101-2.119-50.14-11.627-85.194-46.779-96.197-96.449-2.134-9.773-2.201-13.216-2.396-122.825-.495-120.057-.223-129.636 4.152-146.399C42.383 71.55 80.872 36.146 128.39 27.623c6.57-1.132 19.098-1.431 63.901-1.532 8.596-.016 15.846-.027 21.97-.027 17.168 0 24.818.089 29.232.338 4.101.232 10.297.583 13.526 6.67.087.164.17.331.247.499 1.252 2.715 1.354 2.937 1.581 58.497.148 36.352.221 90.084.221 164.27 0 103.832-.032 154.947-.222 183.358-.097 14.521-.235 23.337-.449 28.583-.237 5.802-.409 9.994-3.73 13.316-4.211 4.212-8.891 4.212-28.584 4.212zM214.261 46.064c-6.114 0-13.352.011-21.929.027-41.422.094-55.554.381-60.479 1.229-39.797 7.138-72.074 36.794-82.162 75.539-3.724 14.265-3.985 24.829-3.505 141.295.192 108.087.319 111.214 1.929 118.588 9.263 41.817 38.847 71.444 81.159 81.257 5.089 1.167 14.741 1.424 60.723 1.607 16.043.124 27.657.2 36.087.2 2.448 0 8.037 0 12.405-.104.55-17.674.581-74.739.581-209.364 0-117.585-.189-188.041-.564-210.115-5.867-.142-15.028-.159-24.245-.159z" fill="#ffffff" class="fill-9b1814"></path><path d="M212.541 256.044v184.505l-37.118-.489c-34.171-.394-37.804-.588-44.678-2.257-29.358-7.563-51.061-30.148-57.247-59.605-1.964-9.229-1.964-235.763-.098-244.797 5.498-25.629 23.271-46.837 47.133-56.363 11.979-4.812 17.576-5.401 56.56-5.499l35.251-.099v184.604h.197z" fill="#0d0d0d" class="fill-ffffff"></path><path d="m212.541 450.549-.132-.001-37.118-.489c-33.941-.391-38.747-.558-46.905-2.538l-.135-.034c-32.878-8.47-57.608-34.232-64.539-67.233-2.193-10.31-2.294-238.275-.104-248.876 6.232-29.052 26.121-52.81 53.219-63.627 14.055-5.646 21.989-6.116 60.242-6.212l35.249-.099h.028a10 10 0 0 1 10 10v182.618c.129.642.197 1.306.197 1.986v184.505a9.999 9.999 0 0 1-10.002 10zm-79.368-22.447c5.576 1.35 8.721 1.571 42.365 1.959l27.003.355V258.03a10.073 10.073 0 0 1-.197-1.986V81.467l-25.223.071c-38.677.097-42.686.691-52.86 4.778-20.835 8.317-36.147 26.588-41.026 48.917-1.627 13.958-1.549 227.748.091 241.104 5.498 25.781 24.112 45.11 49.847 51.765z" fill="#ffffff" class="fill-9b1814"></path><path d="M140.048 137.019c-4.314.819-10.936 4.167-14.506 7.216-7.216 6.249-10.861 15.176-10.266 25.664.298 5.431.595 6.919 2.826 11.308 3.273 6.695 8.108 11.605 14.805 14.878 4.612 2.306 5.802 2.53 11.827 2.753 5.43.222 7.365 0 11.01-1.266 14.953-5.059 24.028-19.565 21.424-34.517-2.9-17.63-19.787-29.532-37.12-26.036z" fill="#0d0d0d" class="fill-ffffff"></path><path d="M147.84 208.914c-.001 0-.001 0 0 0-.996 0-2.112-.027-3.514-.084-7.146-.265-9.771-.741-15.891-3.801-8.508-4.158-15.022-10.685-19.281-19.358-2.925-5.768-3.506-8.729-3.862-15.224-.765-13.456 4.102-25.456 13.704-33.771 5.015-4.284 13.203-8.329 19.126-9.47a40.886 40.886 0 0 1 8.014-.797c20.032 0 37.614 15.057 40.899 35.023 3.436 19.721-8.37 38.942-28.086 45.613-3.952 1.372-6.88 1.869-11.109 1.869zm-1.704-62.506c-1.37 0-2.753.139-4.111.413l-.112.022c-2.283.433-7.39 2.872-9.875 4.995-4.897 4.241-7.194 10.142-6.777 17.494.239 4.358.268 4.415 1.756 7.342l.07.14c2.32 4.746 5.565 8.015 10.212 10.286 3.144 1.572 3.144 1.572 7.807 1.745 1.064.043 1.948.069 2.734.069 2.125 0 2.815-.16 4.625-.788 10.385-3.514 16.6-13.325 14.853-23.354-1.731-10.509-10.83-18.364-21.182-18.364z" fill="#ffffff" class="fill-9b1814"></path><path d="M293.353 36.581c-.391.295-.586 98.979-.586 219.463 0 198.647.096 218.776 1.471 219.365 2.455.884 73.154.59 81.895-.394 37.018-4.222 69.717-26.708 87.392-60.094 2.259-4.32 5.302-11.488 6.873-15.907 5.696-17.088 5.597-12.569 5.597-143.462 0-104.477-.194-120.091-1.473-126.668-9.032-47.43-45.266-83.27-92.792-91.419-6.383-1.08-16.202-1.375-47.919-1.375-21.997-.098-40.161.197-40.458.491z" fill="#ffffff" class="fill-cf201b"></path><path d="M322.706 485.936c-28.751 0-29.92-.42-31.855-1.117a9.659 9.659 0 0 1-.55-.217c-6.36-2.724-6.605-8.873-6.865-15.384-.214-5.354-.353-14.347-.449-29.154-.188-28.771-.22-80.021-.22-184.02 0-62.254.051-115.792.146-154.827.05-20.44.112-36.33.184-47.229.036-5.622.076-9.998.119-12.978.083-5.739.131-9.04 3.501-11.92 2.829-2.64 4.898-2.675 15.746-2.858 6.158-.104 14.216-.161 22.688-.161 2.808 0 5.721.006 8.703.02 32.612 0 42.345.297 49.542 1.515 51.514 8.833 91.129 47.853 100.947 99.409 1.464 7.529 1.649 21.949 1.649 128.539v6.631c.002 121.802.002 121.802-5.601 138.473l-.51 1.521a10.36 10.36 0 0 1-.064.188c-1.624 4.568-4.849 12.247-7.433 17.189-19.254 36.368-54.804 60.799-95.121 65.396-6.379.717-36.847.984-54.557.984zm-19.388-20.126c4.238.072 10.493.126 19.388.126 23.804 0 48.247-.4 52.308-.857 33.742-3.848 63.531-24.348 79.672-54.835 2.042-3.906 4.88-10.634 6.26-14.497l.489-1.46c4.561-13.571 4.561-13.571 4.559-132.102v-6.632c0-100.464-.192-119.12-1.289-124.76-8.249-43.315-41.479-76.065-84.666-83.471-5.639-.954-16.013-1.23-46.229-1.23-2.996-.013-5.88-.02-8.658-.02-9.111 0-16.664.065-21.997.152-.237 25.71-.388 104.515-.388 209.821 0 133.378.029 191.038.551 209.765zm-2.935-422.117z" fill="#ffffff" class="fill-9b1814"></path><path d="M388.161 244.704c11.019 2.888 19.984 11.246 23.709 21.959 2.354 6.612 2.279 16.337-.078 22.419-4.329 11.168-12.765 18.995-23.631 21.883-17.629 4.561-36.398-6.078-41.49-23.555-1.52-5.32-1.442-14.364.304-19.911 5.245-17.248 23.557-27.431 41.186-22.795z" fill="#0d0d0d" class="fill-ffffff"></path><path d="M379.842 322.021c-19.726 0-37.314-13.083-42.771-31.814-2.103-7.359-1.938-18.391.365-25.711 5.523-18.162 22.843-30.912 42.09-30.912 3.764 0 7.524.487 11.179 1.448 14.297 3.747 25.744 14.345 30.611 28.347 3.137 8.812 3.064 20.896-.199 29.317-5.454 14.069-16.529 24.251-30.387 27.933a43.33 43.33 0 0 1-10.888 1.392zm-.317-68.437c-10.521 0-19.971 6.918-22.983 16.824-1.159 3.684-1.271 10.699-.256 14.256 2.925 10.036 12.837 17.357 23.556 17.357 1.966 0 3.923-.248 5.814-.738 7.656-2.034 13.649-7.657 16.812-15.815 1.522-3.927 1.514-11.147-.019-15.451-2.659-7.648-9.096-13.615-16.823-15.64a24.021 24.021 0 0 0-6.101-.793z" fill="#ffffff" class="fill-9b1814"></path></svg>